<?xml version="1.0" encoding="us-ascii" standalone="no"?><svg xmlns="http://www.w3.org/2000/svg" xmlns:xlink="http://www.w3.org/1999/xlink" contentStyleType="text/css" height="315.625px" preserveAspectRatio="none" style="width:566px;height:315px;" version="1.1" viewBox="0 0 566 315" width="566.6667px" zoomAndPan="magnify"><defs><linearGradient id="grgu3eic002660" x1="50%" x2="50%" y1="0%" y2="100%"><stop offset="0%" stop-color="#33B2E2"/><stop offset="100%" stop-color="#009FDB"/></linearGradient></defs><g><!--cluster replication--><g id="cluster_replication"><path d="M27.0833,16.6667 L103.125,16.6667 A15.625,15.625 0 0 1 113.5417,27.0833 L120.8333,54.775 L418.75,54.775 A10.4167,10.4167 0 0 1 429.1667,65.1917 L429.1667,293.0625 A10.4167,10.4167 0 0 1 418.75,303.4792 L27.0833,303.4792 A10.4167,10.4167 0 0 1 16.6667,293.0625 L16.6667,27.0833 A10.4167,10.4167 0 0 1 27.0833,16.6667 " fill="none" style="stroke:#33B2E2;stroke-width:2.0833333333333335;"/><line style="stroke:#33B2E2;stroke-width:2.0833333333333335;" x1="16.6667" x2="120.8333" y1="54.775" y2="54.775"/><text fill="#009FDB" font-family="Verdana" font-size="12.5" font-weight="bold" lengthAdjust="spacing" textLength="73.9583" x="29.1667" y="39.6505">replication</text></g><!--entity replication-ctl:\nCLI Rust client--><g id="elem_replication-ctl:\nCLI Rust client"><rect fill="url(#grgu3eic002660)" height="78.3" rx="4.1667" ry="4.1667" style="stroke:#33B2E2;stroke-width:1.0416666666666667;" width="148.9583" x="204.6875" y="208.5104"/><rect fill="url(#grgu3eic002660)" height="10.4167" style="stroke:#33B2E2;stroke-width:1.0416666666666667;" width="15.625" x="332.8125" y="213.7187"/><rect fill="url(#grgu3eic002660)" height="2.0833" style="stroke:#33B2E2;stroke-width:1.0416666666666667;" width="4.1667" x="330.7292" y="215.8021"/><rect fill="url(#grgu3eic002660)" height="2.0833" style="stroke:#33B2E2;stroke-width:1.0416666666666667;" width="4.1667" x="330.7292" y="219.9687"/><text fill="#FFFFFF" font-family="Verdana" font-size="12.5" lengthAdjust="spacing" textLength="88.5417" x="228.6458" y="250.2442">replication-ctl:</text><text fill="#FFFFFF" font-family="Verdana" font-size="12.5" lengthAdjust="spacing" textLength="90.625" x="228.6458" y="265.4359">CLI Rust client</text></g><!--entity replication-image:\nPython gRPC messaging service and Replicate client--><g id="elem_replication-image:\nPython gRPC messaging service and Replicate client"><rect fill="url(#grgu3eic002660)" height="78.3" rx="4.1667" ry="4.1667" style="stroke:#33B2E2;stroke-width:1.0416666666666667;" width="378.125" x="33.8542" y="67.7083"/><rect fill="url(#grgu3eic002660)" height="10.4167" style="stroke:#33B2E2;stroke-width:1.0416666666666667;" width="15.625" x="391.1458" y="72.9167"/><rect fill="url(#grgu3eic002660)" height="2.0833" style="stroke:#33B2E2;stroke-width:1.0416666666666667;" width="4.1667" x="389.0625" y="75"/><rect fill="url(#grgu3eic002660)" height="2.0833" style="stroke:#33B2E2;stroke-width:1.0416666666666667;" width="4.1667" x="389.0625" y="79.1667"/><text fill="#FFFFFF" font-family="Verdana" font-size="12.5" lengthAdjust="spacing" textLength="111.4583" x="57.8125" y="109.4421">replication-image:</text><text fill="#FFFFFF" font-family="Verdana" font-size="12.5" lengthAdjust="spacing" textLength="319.7917" x="57.8125" y="124.6338">Python gRPC messaging service and Replicate client</text></g><!--entity Replicate--><g id="elem_Replicate"><ellipse cx="458.3333" cy="106.8646" fill="#FFFFFF" rx="8.3333" ry="8.3333" style="stroke:#000000;stroke-width:1.0416666666666667;"/><text fill="#5A5A5A" font-family="Verdana" font-size="12.5" lengthAdjust="spacing" textLength="55.2083" x="480.7292" y="145.4734">Replicate</text></g><!--entity Intent--><g id="elem_Intent"><ellipse cx="455.2083" cy="247.6667" fill="#FFFFFF" rx="8.3333" ry="8.3333" style="stroke:#000000;stroke-width:1.0416666666666667;"/><text fill="#5A5A5A" font-family="Verdana" font-size="12.5" lengthAdjust="spacing" textLength="97.9167" x="456.25" y="286.2755">Intent message</text></g><!--link replication-image:\nPython gRPC messaging service and Replicate client to replication-ctl:\nCLI Rust client--><g id="link_replication-image:\nPython gRPC messaging service and Replicate client_replication-ctl:\nCLI Rust client"><path d="M240.7851,151.9694 C248.5872,171.2194 253.3284,182.906 261.1513,202.1977 " fill="none" id="replication-image:\nPython gRPC messaging service and Replicate client-replication-ctl:\nCLI Rust client" style="stroke:#009FDB;stroke-width:3.125;"/><polygon fill="#009FDB" points="238.4375,146.1771,238.0974,156.4307,240.3939,151.004,245.8205,153.3005,238.4375,146.1771" style="stroke:#009FDB;stroke-width:3.125;"/><polygon fill="#009FDB" points="263.5,207.9896,263.8383,197.7359,261.5428,203.163,256.1157,200.8675,263.5,207.9896" style="stroke:#009FDB;stroke-width:3.125;"/></g><!--link replication-image:\nPython gRPC messaging service and Replicate client to Replicate--><g id="link_replication-image:\nPython gRPC messaging service and Replicate client_Replicate"><path d="M418.6042,106.8646 C430.6979,106.8646 430.2917,106.8646 442.3854,106.8646 " fill="none" id="replication-image:\nPython gRPC messaging service and Replicate client-Replicate" style="stroke:#009FDB;stroke-width:3.125;"/><polygon fill="#009FDB" points="412.3542,106.8646,421.7292,111.0312,417.5625,106.8646,421.7292,102.6979,412.3542,106.8646" style="stroke:#009FDB;stroke-width:3.125;"/><polygon fill="#009FDB" points="448.6354,106.8646,439.2604,102.6979,443.4271,106.8646,439.2604,111.0312,448.6354,106.8646" style="stroke:#009FDB;stroke-width:3.125;"/></g><!--reverse link replication-ctl:\nCLI Rust client to Intent--><g id="link_replication-ctl:\nCLI Rust client_Intent"><path d="M360.375,247.6667 C390.7813,247.6667 414.9271,247.6667 445.3333,247.6667 " fill="none" id="replication-ctl:\nCLI Rust client-backto-Intent" style="stroke:#009FDB;stroke-width:3.125;"/><polygon fill="#009FDB" points="354.125,247.6667,363.5,251.8333,359.3333,247.6667,363.5,243.5,354.125,247.6667" style="stroke:#009FDB;stroke-width:3.125;"/></g><!--SRC=[hL0nJiH03Ept5IRzVW0X2YA1Jg8uvKgEmhSncrKstiZhW4w8lxD7BeGJ3GLoOMaqCvxnbNOq41pYH5xmQ78VU4J10Lp4dEyJQvrY4cXH-br4fOTBMc0bUK57y6u0xj3rNjB4xQnwwuBI2K_IaipO8HQI-J1cB1izGIKqnk1GG-Bgo-Rf1sATnkizruyRQAQi9LSWrcUuiTDeRo-fOIX-XRmzQfSOVBEjOQ2SqGVsa4bUGmcAt49pLj7YLmAjLQgzdkQRL07cLMB-wsRfO2NuJcqfijh_3h8f0ElPTaupG-PldrgkBAfF]--></g></svg>