<?xml version="1.0" encoding="us-ascii" standalone="no"?><svg xmlns="http://www.w3.org/2000/svg" xmlns:xlink="http://www.w3.org/1999/xlink" contentStyleType="text/css" height="364.5833px" preserveAspectRatio="none" style="width:546px;height:364px;" version="1.1" viewBox="0 0 546 364" width="546.875px" zoomAndPan="magnify"><defs><linearGradient id="g1mx3st7r9rzl20" x1="50%" x2="50%" y1="0%" y2="100%"><stop offset="0%" stop-color="#33B2E2"/><stop offset="100%" stop-color="#009FDB"/></linearGradient></defs><g><!--cluster replication--><g id="cluster_replication"><path d="M27.0833,16.6667 L103.125,16.6667 A15.625,15.625 0 0 1 113.5417,27.0833 L120.8333,54.775 L408.3333,54.775 A10.4167,10.4167 0 0 1 418.75,65.1917 L418.75,342.0208 A10.4167,10.4167 0 0 1 408.3333,352.4375 L27.0833,352.4375 A10.4167,10.4167 0 0 1 16.6667,342.0208 L16.6667,27.0833 A10.4167,10.4167 0 0 1 27.0833,16.6667 " fill="none" style="stroke:#33B2E2;stroke-width:2.0833333333333335;"/><line style="stroke:#33B2E2;stroke-width:2.0833333333333335;" x1="16.6667" x2="120.8333" y1="54.775" y2="54.775"/><text fill="#009FDB" font-family="Verdana" font-size="12.5" font-weight="bold" lengthAdjust="spacing" textLength="73.9583" x="29.1667" y="39.6505">replication</text></g><!--entity replication-ctl:\nCLI Rust client--><g id="elem_replication-ctl:\nCLI Rust client"><rect fill="url(#g1mx3st7r9rzl20)" height="78.3" rx="4.1667" ry="4.1667" style="stroke:#33B2E2;stroke-width:1.0416666666666667;" width="148.9583" x="223.4375" y="257.4688"/><rect fill="url(#g1mx3st7r9rzl20)" height="10.4167" style="stroke:#33B2E2;stroke-width:1.0416666666666667;" width="15.625" x="351.5625" y="262.6771"/><rect fill="url(#g1mx3st7r9rzl20)" height="2.0833" style="stroke:#33B2E2;stroke-width:1.0416666666666667;" width="4.1667" x="349.4792" y="264.7604"/><rect fill="url(#g1mx3st7r9rzl20)" height="2.0833" style="stroke:#33B2E2;stroke-width:1.0416666666666667;" width="4.1667" x="349.4792" y="268.9271"/><text fill="#FFFFFF" font-family="Verdana" font-size="12.5" lengthAdjust="spacing" textLength="88.5417" x="247.3958" y="299.2026">replication-ctl:</text><text fill="#FFFFFF" font-family="Verdana" font-size="12.5" lengthAdjust="spacing" textLength="90.625" x="247.3958" y="314.3942">CLI Rust client</text></g><!--entity replication:\nPython gRPC messaging service and OpenAI client--><g id="elem_replication:\nPython gRPC messaging service and OpenAI client"><rect fill="url(#g1mx3st7r9rzl20)" height="78.3" rx="4.1667" ry="4.1667" style="stroke:#33B2E2;stroke-width:1.0416666666666667;" width="368.75" x="33.3333" y="67.7083"/><rect fill="url(#g1mx3st7r9rzl20)" height="10.4167" style="stroke:#33B2E2;stroke-width:1.0416666666666667;" width="15.625" x="381.25" y="72.9167"/><rect fill="url(#g1mx3st7r9rzl20)" height="2.0833" style="stroke:#33B2E2;stroke-width:1.0416666666666667;" width="4.1667" x="379.1667" y="75"/><rect fill="url(#g1mx3st7r9rzl20)" height="2.0833" style="stroke:#33B2E2;stroke-width:1.0416666666666667;" width="4.1667" x="379.1667" y="79.1667"/><text fill="#FFFFFF" font-family="Verdana" font-size="12.5" lengthAdjust="spacing" textLength="68.75" x="57.2917" y="109.4421">replication:</text><text fill="#FFFFFF" font-family="Verdana" font-size="12.5" lengthAdjust="spacing" textLength="310.4167" x="57.2917" y="124.6338">Python gRPC messaging service and OpenAI client</text></g><!--entity OpenAI--><g id="elem_OpenAI"><ellipse cx="447.9167" cy="106.8646" fill="#FFFFFF" rx="8.3333" ry="8.3333" style="stroke:#000000;stroke-width:1.0416666666666667;"/><text fill="#5A5A5A" font-family="Verdana" font-size="12.5" lengthAdjust="spacing" textLength="45.8333" x="461.4583" y="145.4734">OpenAI</text><text fill="#5A5A5A" font-family="Verdana" font-size="12.5" lengthAdjust="spacing" textLength="17.7083" x="461.4583" y="160.665">via</text><text fill="#5A5A5A" font-family="Verdana" font-size="12.5" lengthAdjust="spacing" textLength="72.9167" x="461.4583" y="175.8567">LlamaIndex</text></g><!--entity PDF--><g id="elem_PDF"><ellipse cx="444.7917" cy="296.625" fill="#FFFFFF" rx="8.3333" ry="8.3333" style="stroke:#000000;stroke-width:1.0416666666666667;"/><text fill="#5A5A5A" font-family="Verdana" font-size="12.5" lengthAdjust="spacing" textLength="55.2083" x="457.2917" y="335.2338">PDF with</text><text fill="#5A5A5A" font-family="Verdana" font-size="12.5" lengthAdjust="spacing" textLength="75" x="457.2917" y="350.4255">tabular data</text></g><!--link replication:\nPython gRPC messaging service and OpenAI client to replication-ctl:\nCLI Rust client--><g id="link_replication:\nPython gRPC messaging service and OpenAI client_replication-ctl:\nCLI Rust client"><path d="M236.5921,152.0803 C250.4358,184.4657 265.2213,219.0756 279.0547,251.4506 " fill="none" id="replication:\nPython gRPC messaging service and OpenAI client-replication-ctl:\nCLI Rust client" style="stroke:#009FDB;stroke-width:3.125;"/><polygon fill="#009FDB" points="234.1354,146.3333,233.9891,156.5915,236.1826,151.1225,241.6517,153.316,234.1354,146.3333" style="stroke:#009FDB;stroke-width:3.125;"/><polygon fill="#009FDB" points="281.5104,257.1979,281.6584,246.9398,279.464,252.4085,273.9952,250.2141,281.5104,257.1979" style="stroke:#009FDB;stroke-width:3.125;"/><text fill="#5A5A5A" font-family="Verdana" font-size="12.5" lengthAdjust="spacing" textLength="55.2083" x="279.6875" y="199.2026">PDF data</text><text fill="#5A5A5A" font-family="Verdana" font-size="12.5" lengthAdjust="spacing" textLength="62.5" x="276.0417" y="214.3942">over gRPC</text></g><!--link replication:\nPython gRPC messaging service and OpenAI client to OpenAI--><g id="link_replication:\nPython gRPC messaging service and OpenAI client_OpenAI"><path d="M408.6875,106.8646 C423.7396,106.8646 423.75,106.8646 431.8125,106.8646 " fill="none" id="replication:\nPython gRPC messaging service and OpenAI client-OpenAI" style="stroke:#009FDB;stroke-width:3.125;"/><polygon fill="#009FDB" points="402.4375,106.8646,411.8125,111.0312,407.6458,106.8646,411.8125,102.6979,402.4375,106.8646" style="stroke:#009FDB;stroke-width:3.125;"/><polygon fill="#009FDB" points="438.0625,106.8646,428.6875,102.6979,432.8542,106.8646,428.6875,111.0312,438.0625,106.8646" style="stroke:#009FDB;stroke-width:3.125;"/></g><!--reverse link replication-ctl:\nCLI Rust client to PDF--><g id="link_replication-ctl:\nCLI Rust client_PDF"><path d="M378.8958,296.625 C403.5521,296.625 421.7708,296.625 434.9167,296.625 " fill="none" id="replication-ctl:\nCLI Rust client-backto-PDF" style="stroke:#009FDB;stroke-width:3.125;"/><polygon fill="#009FDB" points="372.6458,296.625,382.0208,300.7917,377.8542,296.625,382.0208,292.4583,372.6458,296.625" style="stroke:#009FDB;stroke-width:3.125;"/></g><!--SRC=[fP31JiCm44Jl_eebz_n0LI51KL6aIgtAaN3O98jZrLb7wqrBXVXttAG5AYv8o0VRgvdn6zzeInr1vGUoWaSJTuvx5EoWzXZZCh0kWWy23ShkoQFIuxNCiPAyOatmRW3kiTvP2GCta-lGEgNJF4X3CiqgdqJcmvW-xMW9Cg7UknhL1Sx6cESVaxnMFojviIfWEqHDN8vONs2U3tr-UoLDiirHsy1Wjvi5T1GZMiSM8idU9KJa1jOzyLtn5JE3pSCojLCiEUn9HckY- -wLbNfQaw_awRPtU3ckF7POS4Dl6M0yvvl_SitpN9njDKyTpv6_cKxe1wVj1KMn6ZpAM6U4IGBpjy-yl3PQFW40]--></g></svg>